<svg width="89" height="89" viewBox="0 0 89 89" fill="none" xmlns="http://www.w3.org/2000/svg">
<path d="M4.27609 43.3832C4.27609 53.8581 8.43719 63.9039 15.8441 71.3107C23.2509 78.7176 33.2967 82.8787 43.7716 82.8787C54.2464 82.8787 64.2923 78.7176 71.6991 71.3107C79.1059 63.9039 83.2671 53.8581 83.2671 43.3832C83.2671 32.9084 79.1059 22.8626 71.6991 15.4557C64.2923 8.0489 54.2464 3.8878 43.7716 3.8878C33.2967 3.8878 23.2509 8.0489 15.8441 15.4557C8.43719 22.8626 4.27609 32.9084 4.27609 43.3832Z" fill="#AAC4FF"/>
<path d="M69.0422 26.7676L51.9426 68.3568C51.1874 70.1908 49.4613 71.3775 47.4654 71.3775C47.4115 71.3775 47.3576 71.3775 47.3036 71.3775C45.2538 71.3236 43.5277 70.029 42.8804 68.0871L38.9966 56.7593C38.6729 55.7883 39.2123 54.7095 40.1833 54.3858C41.1542 54.0622 42.2331 54.6016 42.5567 55.5726L46.4405 66.9003C46.6563 67.5476 47.1957 67.6016 47.4115 67.6016C47.6273 67.6016 48.1667 67.5476 48.4364 66.9543L65.536 25.3651C65.8057 24.7718 65.4281 24.3402 65.3202 24.1784C65.2123 24.0166 64.7268 23.6929 64.1335 23.9626L22.5983 41.0622C22.0049 41.3319 21.951 41.8713 21.951 42.0871C21.951 42.3029 22.0588 42.8423 22.6522 43.058L35.8679 47.5892L53.0214 33.0249C53.8306 32.3236 55.0173 32.4315 55.6646 33.2406C56.3658 34.0498 56.258 35.2365 55.4488 35.8838L37.4862 51.0954C37.0007 51.5269 36.2995 51.6348 35.6522 51.419L21.4115 46.5643C19.4696 45.917 18.175 44.1908 18.1211 42.141C18.0671 40.0912 19.2539 38.3112 21.1418 37.502L62.731 20.4564C64.565 19.7012 66.6148 20.0788 68.0173 21.5353C69.4198 22.8838 69.7974 24.9336 69.0422 26.7676Z" fill="#645656"/>
<path d="M43.7716 85.5432C20.7606 85.5432 2 66.7826 2 43.7716C2 20.7606 20.7606 2 43.7716 2C66.7826 2 85.5432 20.7606 85.5432 43.7716C85.5432 66.7826 66.7826 85.5432 43.7716 85.5432ZM43.7716 4.9313C22.3728 4.9313 4.9314 22.3728 4.9314 43.7716C4.9314 65.1704 22.3728 82.6118 43.7716 82.6118C65.1704 82.6118 82.6118 65.1704 82.6118 43.7716C82.6118 22.3728 65.1704 4.9313 43.7716 4.9313Z" fill="#917FB3"/>
</svg>
