<svg xmlns="http://www.w3.org/2000/svg" width="88" height="86" fill="none" viewBox="0 0 88 86"><path fill="url(#paint0_radial_1_7)" d="M4.50452 42.0808C4.50452 52.5557 8.66563 62.6015 16.0725 70.0083C23.4793 77.4152 33.5251 81.5763 44 81.5763C54.4748 81.5763 64.5207 77.4152 71.9275 70.0083C79.3343 62.6015 83.4955 52.5557 83.4955 42.0808C83.4955 31.606 79.3343 21.5602 71.9275 14.1533C64.5207 6.74648 54.4748 2.58536 44 2.58536C33.5251 2.58536 23.4793 6.74648 16.0725 14.1533C8.66563 21.5602 4.50452 31.606 4.50452 42.0808Z"/><path fill="#fff" d="M69.2706 25.4652L52.171 67.0544C51.4158 68.8884 49.6897 70.0751 47.6938 70.0751C47.6399 70.0751 47.586 70.0751 47.532 70.0751C45.4822 70.0212 43.7561 68.7266 43.1088 66.7847L39.225 55.4569C38.9013 54.4859 39.4407 53.4071 40.4117 53.0834C41.3826 52.7598 42.4615 53.2992 42.7851 54.2702L46.6689 65.5979C46.8847 66.2452 47.4241 66.2992 47.6399 66.2992C47.8557 66.2992 48.3951 66.2452 48.6648 65.6519L65.7644 24.0627C66.0341 23.4694 65.6565 23.0378 65.5486 22.876C65.4407 22.7142 64.9552 22.3905 64.3619 22.6602L22.8267 39.7598C22.2333 40.0295 22.1794 40.5689 22.1794 40.7847C22.1794 41.0005 22.2872 41.5399 22.8806 41.7556L36.0963 46.2868L53.2498 31.7225C54.059 31.0212 55.2457 31.1291 55.893 31.9382C56.5942 32.7474 56.4864 33.9341 55.6772 34.5814L37.7146 49.793C37.2291 50.2245 36.5279 50.3324 35.8806 50.1166L21.6399 45.2619C19.698 44.6146 18.4034 42.8884 18.3495 40.8386C18.2955 38.7888 19.4823 37.0088 21.3702 36.1996L62.9594 19.154C64.7934 18.3988 66.8432 18.7764 68.2457 20.2329C69.6482 21.5814 70.0258 23.6312 69.2706 25.4652Z"/><path fill="#138A72" d="M44 84.2408C20.989 84.2408 2.22842 65.4802 2.22842 42.4692C2.22842 19.4582 20.989 0.697601 44 0.697601C67.011 0.697601 85.7716 19.4582 85.7716 42.4692C85.7716 65.4802 67.011 84.2408 44 84.2408ZM44 3.62894C22.6012 3.62894 5.15976 21.0704 5.15976 42.4692C5.15976 63.868 22.6012 81.3094 44 81.3094C65.3988 81.3094 82.8402 63.868 82.8402 42.4692C82.8402 21.0704 65.3988 3.62894 44 3.62894Z"/><defs><radialGradient id="paint0_radial_1_7" cx="0" cy="0" r="1" gradientTransform="translate(44 42.0808) scale(39.4955)" gradientUnits="userSpaceOnUse"><stop offset=".626" stop-color="#3BD1B3"/><stop offset="1" stop-color="#22BFA0"/></radialGradient></defs></svg>