<svg xmlns="http://www.w3.org/2000/svg" width="512" height="512" viewBox="0 0 512 512" style="overflow: visible;"
    data-svgdocument="" id="_QQg4xB1DGZ9bNMAhxBZkW" class="fl-svgdocument" x="0" y="0">
    <rect data-uid="o_f6b648fi7_5" data-fl-background="" x="0" y="0" width="512" height="512" fill="#d6eaed"></rect>
    <defs id="_n7n3V_YZ9p_yOXId3ac0i"
        transform="matrix(0.8575232625007629, 0, 0, 0.8575232625007629, 8.33194637298584, 155.588397026062)"
        data-uid="o_f6b648fi7_6">
        <radialGradient id="o_f6b648fi7_3" cx="0.5" cy="0.5" r="0.5" gradientUnits="objectBoundingBox"
            data-uid="o_f6b648fi7_7">
            <stop id="_1T7CnFRj37sfyiUddVFOy" offset="62.56%" stop-color="rgb(59, 209, 179)" data-uid="o_f6b648fi7_8">
            </stop>
            <stop id="_zKMrNnsYTVJilUGfaXXIE" offset="100%" stop-color="rgb(34, 191, 160)" data-uid="o_f6b648fi7_9">
            </stop>
            <stop id="_mquUCl93b6obxyT9YBf8C" offset="100%" stop-color="rgb(34, 191, 160)" data-uid="o_f6b648fi7_10">
            </stop>
        </radialGradient>
    </defs>
    <path id="_HRvGbuYIv3rH6IDs_CMtU" fill="url(#o_f6b648fi7_3)"
        transform="matrix(0.44685718789696693, 0, 0, 0.44685718789696693, 216.50452327728271, 175.5853614807129)"
        data-type="circle" data-cx="88.385" data-cy="88.385" data-r="88.385"
        d="M88.385 88.385m-88.385 0a88.385 88.385 0 1 0 176.77 0a88.385 88.385 0 1 0 -176.77 0"
        data-uid="o_f6b648fi7_11"></path>
    <path text="Chirp" text-anchor="middle" font-size="100" letter-spacing="0" side="left" offset="0.5" dx="0" dy="0"
        space="preserve" href="" font-family="Pacifico" font-scale="contain"
        transform="matrix(0.5107283480465412, 0, 0, 0.5107283480465412, 370.0359503275776, 229.75884840270294)" x="0"
        y="0" fill="#138a72" data-fl-textpath="" id="_Tr6xX8BMGCpWmzNqjbBJ2" data-uid="o_f6b648fi7_12"
        d="M-73.2 0.5Q-85.1 0.5 -93.9-3.85Q-102.7-8.2 -107.4-16.2Q-112.1-24.2 -112.1-34.8L-112.1-34.8Q-112.1-49.5 -106.55-60.9Q-101-72.3 -91.5-78.55Q-82-84.8 -70.4-84.8L-70.4-84.8Q-59.6-84.8 -54-79.25Q-48.400000000000006-73.7 -48.400000000000006-64.6L-48.400000000000006-64.6Q-48.400000000000006-58.5 -50.55-54.8Q-52.7-51.1 -56.7-51.1L-56.7-51.1Q-59.5-51.1 -61.1-52.4Q-62.7-53.7 -62.7-56.2L-62.7-56.2Q-62.7-57.1 -62.3-59.5L-62.3-59.5Q-61.7-62.5 -61.7-64.3L-61.7-64.3Q-61.7-73.4 -71.4-73.4L-71.4-73.4Q-78-73.4 -84-69.1Q-90-64.8 -93.7-56.45Q-97.4-48.1 -97.4-36.6L-97.4-36.6Q-97.4-24.6 -90.7-18.05Q-84-11.5 -70.9-11.5L-70.9-11.5Q-64.4-11.5 -57.75-13.15Q-51.099999999999994-14.8 -43-18.2L-43-18.2Q-41.5-18.8 -40.5-18.8L-40.5-18.8Q-38.900000000000006-18.8 -38.099999999999994-17.6Q-37.3-16.4 -37.3-14.5L-37.3-14.5Q-37.3-8.4 -43.900000000000006-5.5L-43.900000000000006-5.5Q-51-2.4 -58.65-0.95Q-66.3 0.5 -73.2 0.5L-73.2 0.5ZM 10.400000000000006-22.3Q 11.70000000000001-22.3  12.45000000000001-21.1Q 13.20000000000001-19.9  13.20000000000001-17.8L 13.20000000000001-17.8Q 13.20000000000001-13.8  11.300000000000011-11.6L 11.300000000000011-11.6Q 6.70000000000001-6.3  1.8500000000000085-2.9Q-2.999999999999993 0.5 -9.199999999999989 0.5L-9.199999999999989 0.5Q-14.29999999999999 0.5 -16.89999999999999-2.45Q-19.499999999999993-5.4 -19.499999999999993-11L-19.499999999999993-11Q-19.499999999999993-13.8 -18.09999999999999-21L-18.09999999999999-21Q-16.79999999999999-27.3 -16.79999999999999-29.7L-16.79999999999999-29.7Q-16.79999999999999-31.3 -17.89999999999999-31.3L-17.89999999999999-31.3Q-19.199999999999992-31.3 -21.59999999999999-27.95Q-23.999999999999993-24.6 -26.39999999999999-19.1Q-28.79999999999999-13.6 -30.29999999999999-7.5L-30.29999999999999-7.5Q-32.19999999999999 0.5 -39.69999999999999 0.5L-39.69999999999999 0.5Q-42.69999999999999 0.5 -43.64999999999999-1.65Q-44.599999999999994-3.8 -44.599999999999994-9.4L-44.599999999999994-9.4Q-44.599999999999994-12.6 -44.49999999999999-14.5L-44.49999999999999-14.5L-44.39999999999999-22.5Q-44.39999999999999-37.9 -41.24999999999999-54.6Q-38.099999999999994-71.3 -31.949999999999992-82.65Q-25.79999999999999-94 -17.19999999999999-94L-17.19999999999999-94Q-12.599999999999994-94 -9.749999999999993-90.05Q-6.8999999999999915-86.1 -6.8999999999999915-79.8L-6.8999999999999915-79.8Q-6.8999999999999915-69.7 -12.79999999999999-58.85Q-18.699999999999992-48 -31.999999999999993-33.5L-31.999999999999993-33.5Q-32.29999999999999-28.3 -32.29999999999999-22.8L-32.29999999999999-22.8Q-28.999999999999993-31.3 -24.949999999999992-36.65Q-20.89999999999999-42 -16.94999999999999-44.3Q-12.999999999999993-46.6 -9.699999999999989-46.6L-9.699999999999989-46.6Q-3.1999999999999886-46.6 -3.1999999999999886-40.1L-3.1999999999999886-40.1Q-3.1999999999999886-36.2 -5.3999999999999915-26L-5.3999999999999915-26Q-7.29999999999999-17.3 -7.29999999999999-14.5L-7.29999999999999-14.5Q-7.29999999999999-10.5 -4.3999999999999915-10.5L-4.3999999999999915-10.5Q-2.3999999999999915-10.5  0.3500000000000085-12.95Q 3.1000000000000085-15.4  7.70000000000001-20.9L 7.70000000000001-20.9Q 8.900000000000006-22.3  10.400000000000006-22.3L 10.400000000000006-22.3ZM-19.29999999999999-84.1Q-21.09999999999999-84.1 -23.29999999999999-78.95Q-25.499999999999993-73.8 -27.54999999999999-65.05Q-29.59999999999999-56.3 -30.89999999999999-46L-30.89999999999999-46Q-24.699999999999992-53.3 -20.64999999999999-61.9Q-16.599999999999994-70.5 -16.599999999999994-77.5L-16.599999999999994-77.5Q-16.599999999999994-80.7 -17.29999999999999-82.4Q-17.999999999999993-84.1 -19.29999999999999-84.1L-19.29999999999999-84.1ZM 18.20000000000001-53.2Q 14.00000000000001-53.2  11.900000000000011-55.15Q 9.800000000000011-57.1  9.800000000000011-60.6L 9.800000000000011-60.6Q 9.800000000000011-64.1  12.550000000000011-66.45Q 15.300000000000011-68.8  19.400000000000013-68.8L 19.400000000000013-68.8Q 23.100000000000012-68.8  25.400000000000013-67Q 27.70000000000001-65.2  27.70000000000001-61.9L 27.70000000000001-61.9Q 27.70000000000001-57.9  25.100000000000012-55.55Q 22.50000000000001-53.2  18.20000000000001-53.2L 18.20000000000001-53.2ZM 17.400000000000013 0.5Q 10.900000000000011 0.5  7.950000000000012-4.1Q 5.0000000000000115-8.7  5.0000000000000115-16.3L 5.0000000000000115-16.3Q 5.0000000000000115-20.8  6.150000000000011-27.85Q 7.300000000000011-34.9  9.100000000000012-41L 9.100000000000012-41Q 10.00000000000001-44.2  11.50000000000001-45.4Q 13.00000000000001-46.6  16.30000000000001-46.6L 16.30000000000001-46.6Q 21.400000000000013-46.6  21.400000000000013-43.2L 21.400000000000013-43.2Q 21.400000000000013-40.7  19.50000000000001-31.6L 19.50000000000001-31.6Q 17.100000000000012-20.6  17.100000000000012-16.7L 17.100000000000012-16.7Q 17.100000000000012-13.7  17.900000000000013-12.1Q 18.70000000000001-10.5  20.600000000000012-10.5L 20.600000000000012-10.5Q 22.400000000000013-10.5  25.100000000000012-13Q 27.80000000000001-15.5  32.30000000000001-20.9L 32.30000000000001-20.9Q 33.500000000000014-22.3  35.000000000000014-22.3L 35.000000000000014-22.3Q 36.30000000000001-22.3  37.05000000000001-21.1Q 37.80000000000001-19.9  37.80000000000001-17.8L 37.80000000000001-17.8Q 37.80000000000001-13.8  35.90000000000001-11.6L 35.90000000000001-11.6Q 26.00000000000001 0.5  17.400000000000013 0.5L 17.400000000000013 0.5ZM 36.80000000000001 0.5Q 33.000000000000014 0.5  31.450000000000014-3.5Q 29.900000000000013-7.5  29.900000000000013-16.3L 29.900000000000013-16.3Q 29.900000000000013-29.3  33.60000000000001-41L 33.60000000000001-41Q 34.500000000000014-43.9  36.55000000000001-45.25Q 38.60000000000001-46.6  42.30000000000001-46.6L 42.30000000000001-46.6Q 44.30000000000001-46.6  45.10000000000001-46.1Q 45.90000000000001-45.6  45.90000000000001-44.2L 45.90000000000001-44.2Q 45.90000000000001-42.6  44.40000000000001-37L 44.40000000000001-37Q 43.40000000000001-33  42.80000000000001-30Q 42.20000000000002-27  41.80000000000001-22.6L 41.80000000000001-22.6Q 45.10000000000001-31.2  49.20000000000002-36.6Q 53.30000000000001-42  57.250000000000014-44.3Q 61.20000000000001-46.6  64.50000000000001-46.6L 64.50000000000001-46.6Q 71.00000000000001-46.6  71.00000000000001-40.1L 71.00000000000001-40.1Q 71.00000000000001-38.8  70.10000000000002-33.8L 70.10000000000002-33.8Q 69.30000000000001-29.8  69.30000000000001-28.8L 69.30000000000001-28.8Q 69.30000000000001-25.3  71.80000000000001-25.3L 71.80000000000001-25.3Q 74.60000000000002-25.3  79.00000000000001-29.7L 79.00000000000001-29.7Q 80.30000000000001-31  81.70000000000002-31L 81.70000000000002-31Q 83.00000000000001-31  83.75000000000001-29.85Q 84.50000000000001-28.7  84.50000000000001-26.8L 84.50000000000001-26.8Q 84.50000000000001-23.1  82.50000000000001-21L 82.50000000000001-21Q 79.70000000000002-18.1  75.95000000000002-16.05Q 72.20000000000002-14  68.00000000000001-14L 68.00000000000001-14Q 62.70000000000001-14  59.95000000000001-16.7Q 57.20000000000001-19.4  57.20000000000001-24L 57.20000000000001-24Q 57.20000000000001-25.5  57.500000000000014-27L 57.500000000000014-27Q 57.70000000000001-29  57.70000000000001-29.7L 57.70000000000001-29.7Q 57.70000000000001-31.3  56.60000000000001-31.3L 56.60000000000001-31.3Q 55.10000000000001-31.3  52.65000000000001-27.95Q 50.20000000000002-24.6  47.80000000000001-19.1Q 45.40000000000001-13.6  43.90000000000001-7.5L 43.90000000000001-7.5Q 42.80000000000001-2.8  41.35000000000001-1.15Q 39.90000000000001 0.5  36.80000000000001 0.5L 36.80000000000001 0.5ZM 128.60000000000002-22.3Q 129.9-22.3  130.65-21.1Q 131.4-19.9  131.4-17.8L 131.4-17.8Q 131.4-13.8  129.5-11.6L 129.5-11.6Q 125.2-6.3  120.25-2.9Q 115.30000000000001 0.5  109 0.5L 109 0.5Q 103.7 0.5  100.4-3.3L 100.4-3.3Q 94.7 0.4  88.5 0.5L 88.5 0.5Q 87.2 19.8  82.60000000000001 32.75Q 78 45.7 69.10000000000001 45.7L 69.10000000000001 45.7Q 63.7 45.7 61.10000000000001 41.8Q 58.50000000000001 37.9 58.50000000000001 31L 58.50000000000001 31Q 58.50000000000001 21.2 63.00000000000001 8.15Q 67.5-4.9  76.9-20.6L 76.9-20.6Q 76.9-35.2  76.7-40.9L 76.7-40.9Q 76.60000000000001-43.8  79-45.5Q 81.4-47.2  85-47.2L 85-47.2Q 87.10000000000001-47.2  88.05000000000001-46.35Q 89-45.5  89.10000000000001-43L 89.10000000000001-43Q 89.10000000000001-40.5  89.2-39.3L 89.2-39.3Q 92.4-43.3  95.5-45.05Q 98.60000000000001-46.8  102.10000000000001-46.8L 102.10000000000001-46.8Q 107.7-46.8  111.25-42.3Q 114.80000000000001-37.8  114.80000000000001-30.5L 114.80000000000001-30.5Q 114.80000000000001-25.2  113.10000000000001-20.2Q 111.4-15.2  108.4-11.1L 108.4-11.1Q 110.5-10.5  111.9-10.5L 111.9-10.5Q 115.2-10.5  118.2-12.9Q 121.2-15.3  125.9-20.9L 125.9-20.9Q 127.10000000000001-22.3  128.60000000000002-22.3L 128.60000000000002-22.3ZM 89-9.1Q 92.60000000000001-9.9  95.65-13.05Q 98.7-16.2  100.5-20.85Q 102.30000000000001-25.5  102.30000000000001-30.6L 102.30000000000001-30.6Q 102.30000000000001-33.6  101.10000000000001-35.15Q 99.9-36.7  97.9-36.7L 97.9-36.7Q 94.30000000000001-36.7  89.2-29.1L 89.2-29.1Q 89.10000000000001-24.7  89.10000000000001-16.2L 89.10000000000001-16.2Q 89.10000000000001-11.6  89-9.1L 89-9.1ZM 69.9 35.9Q 72.60000000000001 35.9  74.4 24.15Q 76.2 12.4  76.7-5.1L 76.7-5.1Q 72.4 4.9 69.9 14Q 67.4 23.1 67.4 29.3L 67.4 29.3Q 67.4 32.5 68.15 34.2Q 68.9 35.9 69.9 35.9L 69.9 35.9Z">
    </path>
    <path id="_oYEJ5xshD5OKW7vAbWNK0"
        d="M96.8 14.9L65.1 92c-1.4 3.4-4.6 5.6-8.3 5.6c-0.1 0-0.2 0-0.3 0c-3.8-0.1-7-2.5-8.2-6.1l-7.2-21c-0.6-1.8 0.4-3.8 2.2-4.4  c1.8-0.6 3.8 0.4 4.4 2.2l7.2 21c0.4 1.2 1.4 1.3 1.8 1.3c0.4 0 1.4-0.1 1.9-1.2l31.7-77.1c0.5-1.1-0.2-1.9-0.4-2.2  s-1.1-0.9-2.2-0.4L10.7 41.4c-1.1 0.5-1.2 1.5-1.2 1.9s0.2 1.4 1.3 1.8l24.5 8.4l31.8-27c1.5-1.3 3.7-1.1 4.9 0.4  c1.3 1.5 1.1 3.7-0.4 4.9L38.3 60c-0.9 0.8-2.2 1-3.4 0.6l-26.4-9c-3.6-1.2-6-4.4-6.1-8.2c-0.1-3.8 2.1-7.1 5.6-8.6L85.1 3.2  c3.4-1.4 7.2-0.7 9.8 2C97.5 7.7 98.2 11.5 96.8 14.9z"
        fill="#ffffff"
        transform="matrix(0.5394183769822121, 0, 0, 0.5394183769822121, 229.05489349365234, 190.4278802871704)"
        data-uid="o_f6b648fi7_13"></path>
    <path id="_8He3BYDSRBqg6nYAEraMB"
        d="M40 68.5c-15.7 0-28.5-12.8-28.5-28.5S24.3 11.5 40 11.5S68.5 24.3 68.5 40S55.7 68.5 40 68.5z M40 13.5   c-14.6 0-26.5 11.9-26.5 26.5S25.4 66.5 40 66.5S66.5 54.6 66.5 40S54.6 13.5 40 13.5z"
        fill="#138a72"
        transform="matrix(1.4656694307923317, 0, 0, 1.4656694307923317, 197.3732204437256, 156.84240627288818)"
        data-uid="o_f6b648fi7_14"></path>
</svg>